<?xml version="1.0" encoding="UTF-8" standalone="no"?>
<svg
   xmlns:dc="http://purl.org/dc/elements/1.1/"
   xmlns:cc="http://creativecommons.org/ns#"
   xmlns:rdf="http://www.w3.org/1999/02/22-rdf-syntax-ns#"
   xmlns:svg="http://www.w3.org/2000/svg"
   xmlns="http://www.w3.org/2000/svg"
   xmlns:sodipodi="http://sodipodi.sourceforge.net/DTD/sodipodi-0.dtd"
   xmlns:inkscape="http://www.inkscape.org/namespaces/inkscape"
   version="1.1"
   id="Layer_1"
   x="0px"
   y="0px"
   viewBox="0 0 100 100"
   enable-background="new 0 0 100 100"
   xml:space="preserve"
   height="100px"
   width="100px"
   inkscape:version="0.48.5 r10040"
   sodipodi:docname="print.svg"><metadata
     id="metadata3039"><rdf:RDF><cc:Work
         rdf:about=""><dc:format>image/svg+xml</dc:format><dc:type
           rdf:resource="http://purl.org/dc/dcmitype/StillImage" /></cc:Work></rdf:RDF></metadata><defs
     id="defs3037" /><sodipodi:namedview
     pagecolor="#ffffff"
     bordercolor="#666666"
     borderopacity="1"
     objecttolerance="10"
     gridtolerance="10"
     guidetolerance="10"
     inkscape:pageopacity="0"
     inkscape:pageshadow="2"
     inkscape:window-width="640"
     inkscape:window-height="480"
     id="namedview3035"
     showgrid="false"
     inkscape:zoom="2.4"
     inkscape:cx="50"
     inkscape:cy="50"
     inkscape:window-x="554"
     inkscape:window-y="400"
     inkscape:window-maximized="0"
     inkscape:current-layer="Layer_1" /><path
     d="M83.7,37.2v-8.6c0-1.2-0.4-2.1-1.1-2.8L63.3,6.5c-0.8-0.6-1.6-1.1-2.9-1.1h-40c-2.2,0-3.9,1.8-3.9,4v27.8H9  c-2.2,0-4,1.9-4,4.2v37c0,2.1,1.8,3.9,4,3.9h7.4v8.4c0,2.2,1.8,4,3.9,4h59.2c2.3,0,4.1-1.8,4.1-4v-8.4H91c2.3,0,4-1.8,4-3.9v-37  c0-2.3-1.7-4.2-4-4.2H83.7z M24.5,86.3V60.4h51.2v25.9H24.5z M24.5,37.2V13.5h31.8v15.1c0,2.3,1.9,4.1,4.1,4.1h15.3v4.6H24.5z   M83.7,52.8c-2.3,0-4-1.9-4-4.3c0-2.2,1.8-4.1,4-4.1c2.3,0,4.1,1.9,4.1,4.1C87.8,50.9,86,52.8,83.7,52.8L83.7,52.8z M30.5,65v6h38.8  v-6H30.5z M30.5,74.7v5.9h38.8v-5.9H30.5z"
     id="path3033"
     style="stroke:#ffffff;fill:#ffffff" /></svg>