<?xml version="1.0" encoding="UTF-8" standalone="no"?>
<svg
   xmlns:dc="http://purl.org/dc/elements/1.1/"
   xmlns:cc="http://creativecommons.org/ns#"
   xmlns:rdf="http://www.w3.org/1999/02/22-rdf-syntax-ns#"
   xmlns:svg="http://www.w3.org/2000/svg"
   xmlns="http://www.w3.org/2000/svg"
   xmlns:sodipodi="http://sodipodi.sourceforge.net/DTD/sodipodi-0.dtd"
   xmlns:inkscape="http://www.inkscape.org/namespaces/inkscape"
   version="1.1"
   id="Layer_1"
   x="0px"
   y="0px"
   width="43"
   height="46"
   viewBox="0 0 43 46"
   enable-background="new 0 0 32 32"
   xml:space="preserve"
   inkscape:version="0.48.5 r10040"
   sodipodi:docname="refresh.svg"><metadata
     id="metadata8"><rdf:RDF><cc:Work
         rdf:about=""><dc:format>image/svg+xml</dc:format><dc:type
           rdf:resource="http://purl.org/dc/dcmitype/StillImage" /><dc:title /></cc:Work></rdf:RDF></metadata><defs
     id="defs6" /><sodipodi:namedview
     pagecolor="#ffffff"
     bordercolor="#666666"
     borderopacity="1"
     objecttolerance="10"
     gridtolerance="10"
     guidetolerance="10"
     inkscape:pageopacity="0"
     inkscape:pageshadow="2"
     inkscape:window-width="1680"
     inkscape:window-height="984"
     id="namedview4"
     showgrid="false"
     inkscape:zoom="7.375"
     inkscape:cx="-11.118645"
     inkscape:cy="16"
     inkscape:window-x="0"
     inkscape:window-y="27"
     inkscape:window-maximized="1"
     inkscape:current-layer="Layer_1" /><g
     id="g2982"
     style="fill:#ffffff;stroke:#ffffff"><path
       sodipodi:nodetypes="cccccccccccccccccccc"
       style="stroke:#ffffff;stroke-width:1.06457508000000001;stroke-linecap:round;stroke-linejoin:round;stroke-miterlimit:4;stroke-opacity:1;stroke-dasharray:none;fill:#ffffff"
       inkscape:connector-curvature="0"
       d="m 42.080986,24.995731 -13.009919,6.775253 3.464729,2.426639 C 27.784372,39.749192 19.771082,40.946927 13.643616,36.642594 9.5119027,33.761449 7.3642176,29.843404 7.2440684,24.988885 l -5.9632247,0.126286 c 0.1572541,6.775496 3.3784571,12.587927 9.1744333,16.626247 8.8111,6.176096 20.461687,4.233341 27.015209,-4.143077 l 3.742781,2.613252 z m -31.22574,-11.36282 c 4.750984,-5.5532588 12.768653,-6.7540607 18.884097,-2.482687 4.134509,2.898539 6.553356,6.660992 6.67234,11.517659 l 5.696131,0.147249 C 41.949683,16.036376 38.738716,10.094541 32.957048,6.0448833 24.150199,-0.12150694 12.491421,1.8162992 5.9365783,10.187634 L 2.1980228,7.5640921 1.3173666,22.836369 14.331377,16.06359 z"
       id="acw" /></g></svg>